<?xml version="1.0" encoding="utf-8"?>
<!-- Generator: Adobe Illustrator 15.0.0, SVG Export Plug-In . SVG Version: 6.00 Build 0)  -->
<!DOCTYPE svg PUBLIC "-//W3C//DTD SVG 1.1//EN" "http://www.w3.org/Graphics/SVG/1.1/DTD/svg11.dtd">
<svg version="1.1" id="Layer_1" xmlns="http://www.w3.org/2000/svg" xmlns:xlink="http://www.w3.org/1999/xlink" x="0px" y="0px"
	 width="20.883px" height="20.883px" viewBox="0 0 20.883 20.883" enable-background="new 0 0 20.883 20.883" xml:space="preserve">
<g>
	<path fill="#FFFFFF" d="M20.883,16.805c0,0.469-0.164,0.867-0.492,1.195L18,20.391c-0.329,0.328-0.727,0.492-1.196,0.492
		s-0.867-0.164-1.195-0.492l-5.168-5.168l-5.168,5.168c-0.328,0.328-0.727,0.492-1.195,0.492s-0.867-0.164-1.195-0.492L0.492,18
		C0.164,17.672,0,17.273,0,16.805s0.164-0.867,0.492-1.195l5.168-5.168L0.492,5.273C0.164,4.945,0,4.547,0,4.078
		s0.164-0.867,0.492-1.195l2.391-2.391C3.211,0.164,3.609,0,4.078,0s0.867,0.164,1.195,0.492l5.168,5.168l5.168-5.168
		C15.938,0.164,16.336,0,16.805,0S17.672,0.164,18,0.492l2.391,2.391c0.328,0.328,0.492,0.727,0.492,1.195s-0.164,0.867-0.492,1.195
		l-5.168,5.168l5.168,5.168C20.719,15.938,20.883,16.336,20.883,16.805z"/>
</g>
</svg>
