<?xml version="1.0" encoding="utf-8"?>
<!-- Generator: Adobe Illustrator 15.0.0, SVG Export Plug-In . SVG Version: 6.00 Build 0)  -->
<!DOCTYPE svg PUBLIC "-//W3C//DTD SVG 1.1//EN" "http://www.w3.org/Graphics/SVG/1.1/DTD/svg11.dtd">
<svg version="1.1" id="Layer_1" xmlns="http://www.w3.org/2000/svg" xmlns:xlink="http://www.w3.org/1999/xlink" x="0px" y="0px"
	 width="17.656px" height="18.572px" viewBox="0 0 17.656 18.572" enable-background="new 0 0 17.656 18.572" xml:space="preserve">
<g>
	<path fill="#FFFFFF" d="M7.847,8.884c0,0.268,0.119,0.53,0.356,0.787c0.238,0.257,0.526,0.51,0.865,0.759
		c0.339,0.25,0.676,0.523,1.01,0.82c0.335,0.298,0.622,0.686,0.859,1.161c0.238,0.476,0.357,1.005,0.357,1.585
		c0,0.67-0.179,1.313-0.535,1.931c-0.536,0.907-1.321,1.575-2.355,2.003s-2.143,0.643-3.326,0.643c-0.981,0-1.898-0.155-2.751-0.464
		c-0.852-0.309-1.489-0.82-1.914-1.534C0.138,16.127,0,15.641,0,15.111c0-0.602,0.166-1.16,0.497-1.674s0.771-0.941,1.322-1.283
		c0.975-0.609,2.478-0.982,4.509-1.116c-0.237-0.313-0.414-0.587-0.529-0.826c-0.116-0.238-0.174-0.51-0.174-0.815
		c0-0.268,0.078-0.584,0.234-0.949c-0.342,0.03-0.595,0.045-0.759,0.045C4,8.494,3.071,8.135,2.316,7.417
		C1.561,6.699,1.184,5.789,1.184,4.688c0-0.61,0.134-1.201,0.401-1.774C1.854,2.34,2.222,1.853,2.69,1.451
		C3.263,0.96,3.942,0.596,4.727,0.357C5.512,0.119,6.321,0,7.154,0h4.665l-1.54,0.982H8.817c0.551,0.469,0.967,0.963,1.25,1.484
		c0.282,0.521,0.424,1.116,0.424,1.786c0,0.536-0.091,1.018-0.273,1.445C10.036,6.125,9.816,6.472,9.56,6.736
		S9.044,7.242,8.784,7.461C8.523,7.681,8.302,7.91,8.12,8.147C7.938,8.386,7.847,8.631,7.847,8.884z M6.239,17.557
		c0.432,0,0.847-0.049,1.244-0.146c0.398-0.097,0.767-0.242,1.105-0.436c0.338-0.193,0.609-0.465,0.814-0.814
		c0.204-0.35,0.307-0.755,0.307-1.217c0-0.187-0.025-0.368-0.078-0.547c-0.052-0.179-0.105-0.335-0.161-0.469
		c-0.057-0.134-0.156-0.288-0.302-0.463S8.914,13.16,8.84,13.075s-0.218-0.214-0.43-0.386c-0.212-0.17-0.348-0.278-0.407-0.323
		c-0.06-0.044-0.214-0.156-0.464-0.335c-0.249-0.178-0.385-0.275-0.407-0.29c-0.119-0.015-0.298-0.022-0.535-0.022
		c-0.395,0-0.785,0.026-1.172,0.078c-0.388,0.053-0.787,0.146-1.2,0.279s-0.773,0.305-1.082,0.514
		c-0.31,0.208-0.564,0.485-0.765,0.831c-0.201,0.347-0.302,0.739-0.302,1.178c0,0.521,0.13,0.979,0.391,1.378
		s0.601,0.707,1.021,0.927c0.42,0.22,0.863,0.383,1.328,0.491C5.281,17.502,5.756,17.557,6.239,17.557z M6.217,7.813
		c0.283,0,0.573-0.061,0.871-0.184c0.297-0.123,0.543-0.285,0.736-0.485c0.395-0.424,0.592-1.016,0.592-1.774
		c0-0.432-0.063-0.896-0.19-1.395C8.1,3.475,7.919,2.993,7.685,2.528C7.45,2.063,7.136,1.678,6.741,1.373S5.912,0.916,5.436,0.916
		c-0.313,0-0.619,0.072-0.921,0.217C4.214,1.278,3.97,1.474,3.784,1.719C3.435,2.158,3.26,2.753,3.26,3.505
		c0,0.342,0.037,0.705,0.111,1.088c0.074,0.383,0.191,0.767,0.352,1.149c0.16,0.383,0.354,0.728,0.58,1.033S4.809,7.329,5.14,7.522
		C5.471,7.716,5.83,7.813,6.217,7.813z M15.279,7.779h2.377v1.205h-2.377v2.444h-1.172V8.984h-2.366V7.779h2.366V5.357h1.172V7.779z
		"/>
</g>
</svg>
