<?xml version="1.0" encoding="utf-8"?>
<!-- Generator: Adobe Illustrator 15.0.0, SVG Export Plug-In . SVG Version: 6.00 Build 0)  -->
<!DOCTYPE svg PUBLIC "-//W3C//DTD SVG 1.1//EN" "http://www.w3.org/Graphics/SVG/1.1/DTD/svg11.dtd" [
	<!ENTITY ns_extend "http://ns.adobe.com/Extensibility/1.0/">
	<!ENTITY ns_ai "http://ns.adobe.com/AdobeIllustrator/10.0/">
	<!ENTITY ns_graphs "http://ns.adobe.com/Graphs/1.0/">
	<!ENTITY ns_vars "http://ns.adobe.com/Variables/1.0/">
	<!ENTITY ns_imrep "http://ns.adobe.com/ImageReplacement/1.0/">
	<!ENTITY ns_sfw "http://ns.adobe.com/SaveForWeb/1.0/">
	<!ENTITY ns_custom "http://ns.adobe.com/GenericCustomNamespace/1.0/">
	<!ENTITY ns_adobe_xpath "http://ns.adobe.com/XPath/1.0/">
]>
<svg version="1.1" id="Layer_1" xmlns:x="&ns_extend;" xmlns:i="&ns_ai;" xmlns:graph="&ns_graphs;"
	 xmlns="http://www.w3.org/2000/svg" xmlns:xlink="http://www.w3.org/1999/xlink" x="0px" y="0px" width="17.656px"
	 height="18.572px" viewBox="0 0 17.656 18.572" enable-background="new 0 0 17.656 18.572" xml:space="preserve">
<metadata>
	<sfw  xmlns="&ns_sfw;">
		<slices></slices>
		<sliceSourceBounds  y="291.213" x="390.672" height="18.573" width="17.656" bottomLeftOrigin="true"></sliceSourceBounds>
	</sfw>
</metadata>
<g>
	<path fill="#737373" d="M7.847,8.884c0,0.268,0.118,0.53,0.355,0.787c0.238,0.257,0.526,0.51,0.865,0.76s0.676,0.522,1.01,0.819
		c0.335,0.298,0.622,0.687,0.859,1.161c0.237,0.477,0.356,1.005,0.356,1.585c0,0.67-0.179,1.313-0.535,1.931
		c-0.535,0.907-1.32,1.575-2.354,2.004c-1.034,0.428-2.143,0.643-3.326,0.643c-0.98,0-1.897-0.155-2.751-0.465
		c-0.852-0.309-1.489-0.819-1.914-1.533C0.138,16.127,0,15.642,0,15.11c0-0.602,0.166-1.159,0.497-1.674
		c0.331-0.514,0.771-0.94,1.322-1.283c0.975-0.608,2.478-0.981,4.509-1.115c-0.237-0.313-0.414-0.587-0.529-0.826
		c-0.115-0.238-0.174-0.51-0.174-0.815c0-0.268,0.078-0.584,0.234-0.949C5.517,8.478,5.264,8.493,5.1,8.493
		C4,8.494,3.071,8.135,2.316,7.417S1.184,5.789,1.184,4.688c0-0.61,0.134-1.201,0.4-1.774C1.854,2.34,2.222,1.853,2.69,1.451
		C3.263,0.96,3.942,0.596,4.727,0.357C5.512,0.119,6.321,0,7.154,0h4.665l-1.54,0.982H8.817c0.551,0.469,0.967,0.963,1.25,1.484
		c0.282,0.521,0.424,1.116,0.424,1.786c0,0.536-0.091,1.018-0.273,1.445C10.036,6.125,9.816,6.472,9.56,6.736
		C9.304,7,9.044,7.242,8.784,7.461C8.523,7.681,8.302,7.91,8.12,8.147C7.938,8.386,7.847,8.631,7.847,8.884z M6.239,17.558
		c0.432,0,0.847-0.05,1.244-0.146c0.397-0.098,0.767-0.242,1.104-0.436s0.609-0.466,0.814-0.814c0.204-0.35,0.307-0.755,0.307-1.217
		c0-0.188-0.024-0.368-0.078-0.547c-0.052-0.18-0.104-0.336-0.16-0.47c-0.058-0.134-0.156-0.288-0.303-0.463
		c-0.146-0.175-0.254-0.305-0.328-0.39c-0.073-0.085-0.218-0.215-0.43-0.387c-0.212-0.17-0.348-0.277-0.407-0.322
		c-0.06-0.044-0.214-0.156-0.464-0.335c-0.249-0.179-0.385-0.275-0.407-0.29c-0.118-0.016-0.298-0.022-0.534-0.022
		c-0.396,0-0.785,0.026-1.173,0.078c-0.388,0.054-0.786,0.146-1.199,0.279c-0.413,0.133-0.773,0.305-1.082,0.514
		c-0.311,0.208-0.564,0.485-0.766,0.831c-0.201,0.348-0.302,0.739-0.302,1.178c0,0.521,0.13,0.979,0.391,1.379
		c0.262,0.398,0.602,0.707,1.021,0.926c0.42,0.221,0.863,0.384,1.328,0.492C5.281,17.502,5.756,17.558,6.239,17.558z M6.217,7.813
		c0.283,0,0.573-0.061,0.871-0.184c0.297-0.123,0.543-0.285,0.736-0.485C8.219,6.72,8.416,6.128,8.416,5.37
		c0-0.432-0.063-0.896-0.189-1.395C8.1,3.475,7.919,2.993,7.685,2.528C7.45,2.063,7.136,1.678,6.741,1.373
		C6.346,1.068,5.912,0.916,5.436,0.916c-0.313,0-0.619,0.072-0.921,0.217S3.97,1.474,3.784,1.719C3.435,2.158,3.26,2.753,3.26,3.505
		c0,0.342,0.037,0.705,0.111,1.088C3.445,4.976,3.562,5.36,3.723,5.742c0.159,0.383,0.354,0.728,0.58,1.033
		C4.529,7.08,4.809,7.329,5.14,7.522C5.471,7.716,5.83,7.813,6.217,7.813z M15.279,7.779h2.377v1.205h-2.377v2.444h-1.172V8.984
		h-2.366V7.779h2.366V5.357h1.172V7.779z"/>
</g>
</svg>
