<?xml version="1.0" encoding="utf-8"?>
<!-- Generator: Adobe Illustrator 15.0.0, SVG Export Plug-In . SVG Version: 6.00 Build 0)  -->
<!DOCTYPE svg PUBLIC "-//W3C//DTD SVG 1.1//EN" "http://www.w3.org/Graphics/SVG/1.1/DTD/svg11.dtd" [
	<!ENTITY ns_extend "http://ns.adobe.com/Extensibility/1.0/">
	<!ENTITY ns_ai "http://ns.adobe.com/AdobeIllustrator/10.0/">
	<!ENTITY ns_graphs "http://ns.adobe.com/Graphs/1.0/">
	<!ENTITY ns_vars "http://ns.adobe.com/Variables/1.0/">
	<!ENTITY ns_imrep "http://ns.adobe.com/ImageReplacement/1.0/">
	<!ENTITY ns_sfw "http://ns.adobe.com/SaveForWeb/1.0/">
	<!ENTITY ns_custom "http://ns.adobe.com/GenericCustomNamespace/1.0/">
	<!ENTITY ns_adobe_xpath "http://ns.adobe.com/XPath/1.0/">
]>
<svg version="1.1" id="Layer_1" xmlns:x="&ns_extend;" xmlns:i="&ns_ai;" xmlns:graph="&ns_graphs;"
	 xmlns="http://www.w3.org/2000/svg" xmlns:xlink="http://www.w3.org/1999/xlink" x="0px" y="0px" width="858.086px"
	 height="354.36px" viewBox="123.984 77.93 858.086 354.36" enable-background="new 123.984 77.93 858.086 354.36"
	 xml:space="preserve">
<metadata>
	<sfw  xmlns="&ns_sfw;">
		<slices></slices>
		<sliceSourceBounds  y="114.71" x="-46.016" height="354.36" width="858.086" bottomLeftOrigin="true"></sliceSourceBounds>
	</sfw>
</metadata>
<path fill="#FFFFFF" d="M136.88,90.9c9.1-9.25,22.49-12.49,35.09-12.78c17.02-0.21,34.04-0.03,51.07-0.1
	c10.17-0.08,20.63,0.13,30.24,3.86c8.86,3.25,16.46,9.75,20.9,18.08c4.4,7.93,6.08,17.07,6.13,26.07
	c0.04,62.33-0.02,124.66,0.03,186.99c0.07,12.41-2.34,25.811-11.03,35.23c-8.33,9.3-21.09,12.95-33.18,13.69
	c-17.89,0.689-35.8-0.15-53.68,0.479c-7.94,20.83-15.93,41.64-23.89,62.46c-0.97,2.5-1.7,5.14-3.17,7.41
	c-0.08-32.3-0.03-64.6-0.03-96.9c24.87-0.08,49.75,0.011,74.62-0.05c5.15-0.02,10.65-1.25,14.4-5c4.62-4.43,5.49-11.24,5.57-17.33
	c-0.02-59.67,0-119.34-0.01-179c0.06-7.1,0.44-14.88-3.78-21.01c-3.46-5.32-10.09-7.44-16.18-7.42c-18.31,0-36.62,0-54.93,0
	c-5.42-0.08-11.26,1.25-15.16,5.26c-4.15,4.25-5.47,10.41-5.51,16.17c0,11,0.01,21.99,0,32.99c-10.13,0-20.26,0-30.39,0
	c0.01-11.68-0.03-23.36,0.02-35.04C124.2,112.63,127.9,99.76,136.88,90.9z"/>
<path fill="#FFFFFF" d="M319.91,78.03c10.12,0.02,20.25-0.04,30.37,0.04c-0.04,94.71,0,189.411-0.02,284.121
	c-10.13,0.01-20.25,0.01-30.37,0.01C319.88,267.48,319.84,172.76,319.91,78.03z"/>
<path fill="#FFFFFF" d="M413.82,82.79c13.541-6.06,28.72-4.55,43.14-4.76c12.81-0.07,26.54,1.96,36.71,10.39
	c10.25,8.32,15.11,21.68,15.53,34.59c0.31,12.68,0.01,25.36,0.16,38.04c-10.16-0.08-20.311-0.09-30.46,0c0.1-11,0-22.02,0.05-33.02
	c0.14-7.06-1.771-15.05-7.96-19.23c-6.19-4.15-13.971-3.09-21.021-3.22c-5.95,0.17-12.029-0.59-17.84,1
	c-4.689,1.3-8.67,4.79-10.59,9.26c-2.31,5.05-2.22,10.73-2.16,16.16c0.02,60.68-0.02,121.35,0.02,182.03
	c-0.05,6.819,2.1,14.43,8.15,18.29c6.061,3.989,13.65,2.96,20.521,3.1c6.59-0.229,13.449,0.811,19.76-1.59
	c5.11-1.88,8.71-6.65,10.05-11.811c1.351-4.89,1.05-10,1.061-15.01c0.01-14.67-0.011-29.33,0.01-44
	c-8.311-0.02-16.61,0.03-24.92-0.039c0.029-8.311-0.08-16.631,0.04-24.941c18.43,0.03,36.85-0.08,55.27-0.01
	c-0.05,40.6,0.07,81.26-0.22,121.82c0.57,2.83-0.25,5.65-0.57,8.47c-3.04-7.319-5.76-14.779-8.43-22.239
	c-4.91,5.899-11.15,10.859-18.5,13.3c-12.38,4.55-25.771,3.46-38.69,3.61c-11.319,0.079-23.189-0.99-33.15-6.841
	c-10.05-5.649-16.78-16.09-19.22-27.21c-2.02-8.18-1.51-16.64-1.57-24.979c0-55.97,0-111.94,0-167.91
	c-0.07-9.7-0.32-19.66,2.99-28.93C395.44,96.43,403.43,87.2,413.82,82.79z"/>
<path fill="#FFFFFF" d="M543.91,78.03c10.12,0.02,20.25-0.04,30.37,0.04c-0.04,94.71,0,189.411-0.021,284.121
	c-10.13,0.01-20.25,0.01-30.37,0.01C543.88,267.48,543.84,172.76,543.91,78.03z"/>
<path fill="#FFFFFF" d="M606.04,77.93c40.31,0.13,80.63,0.1,120.939,0.01c-0.01,9.26,0.12,18.52-0.069,27.78
	c-15.101-0.13-30.2-0.04-45.311-0.04c0.12,85.45-0.04,170.91,0.091,256.37c-10,0.36-20,0.021-30,0.17
	c-0.021-55.729,0-111.47-0.011-167.21c-0.109-29.81,0.23-59.65-0.17-89.46c-15.14,0.28-30.3-0.02-45.45,0.15
	C605.94,96.44,605.979,87.19,606.04,77.93z"/>
<path fill="#FFFFFF" d="M887.84,78.03c10.13,0.02,20.26-0.05,30.4,0.04c-0.11,52.64-0.021,105.28-0.05,157.91
	c0.119,33.161-0.24,66.34,0.18,99.49c21.17-0.3,42.35,0.061,63.52-0.189c0.301,8.97-0.029,17.95,0.181,26.93
	c-31.42-0.02-62.83-0.01-94.25,0C887.82,267.48,887.771,172.76,887.84,78.03z"/>
<path fill="#FFFFFF" d="M809.47,78.16c-11.83-0.25-23.67-0.14-35.5-0.06c-12.37,80.78-24.899,161.54-37.34,242.31
	c-1.979,13.99-4.689,27.899-6.189,41.939c9.8-0.35,19.619-0.04,29.43-0.17c2.22-15.85,4.7-31.649,6.93-47.5
	c15.54,0.04,31.07,0.04,46.61,0c2.41,15.801,4.68,31.63,6.96,47.45c10.13,0.18,20.27-0.01,30.4,0.101
	C837.19,267.51,822.97,172.88,809.47,78.16z M770.43,289.561c6.82-46.601,13.92-93.161,20.04-139.851
	c2.51,13.71,3.67,27.65,5.76,41.44c4.461,32.82,9.061,65.629,13.61,98.44C796.7,289.6,783.56,289.67,770.43,289.561z"/>
<path fill="#FFFFFF" d="M188.53,160.45c10.13-0.1,20.25,0.02,30.37-0.07c0.12,10.12,0.13,20.23-0.01,30.35
	c-10.13-0.13-20.27,0.18-30.39-0.17C188.62,180.52,188.53,170.48,188.53,160.45z"/>
</svg>
