<?xml version="1.0" encoding="utf-8"?>
<!-- Generator: Adobe Illustrator 15.0.0, SVG Export Plug-In . SVG Version: 6.00 Build 0)  -->
<!DOCTYPE svg PUBLIC "-//W3C//DTD SVG 1.1//EN" "http://www.w3.org/Graphics/SVG/1.1/DTD/svg11.dtd">
<svg version="1.1" id="Layer_1" xmlns="http://www.w3.org/2000/svg" xmlns:xlink="http://www.w3.org/1999/xlink" x="0px" y="0px"
	 width="20.25px" height="29.25px" viewBox="0 0 20.25 29.25" enable-background="new 0 0 20.25 29.25" xml:space="preserve">
<g>
	<path fill="#FFFFFF" d="M20.25,19.125c0,0.305-0.111,0.568-0.334,0.791s-0.486,0.334-0.791,0.334h-7.542l-0.896,8.49
		c-0.023,0.141-0.085,0.261-0.185,0.36s-0.22,0.149-0.36,0.149h-0.018c-0.316,0-0.504-0.158-0.563-0.475L8.227,20.25H1.125
		c-0.305,0-0.568-0.111-0.791-0.334S0,19.43,0,19.125c0-1.441,0.46-2.739,1.38-3.894S3.34,13.5,4.5,13.5v-9
		c-0.609,0-1.137-0.223-1.582-0.668S2.25,2.859,2.25,2.25s0.223-1.137,0.668-1.582S3.891,0,4.5,0h11.25
		c0.609,0,1.137,0.223,1.582,0.668C17.778,1.113,18,1.641,18,2.25s-0.223,1.137-0.668,1.582C16.887,4.277,16.359,4.5,15.75,4.5v9
		c1.16,0,2.201,0.577,3.121,1.731S20.25,17.684,20.25,19.125z M8.438,12.938V5.063c0-0.164-0.053-0.299-0.158-0.404
		S8.039,4.5,7.875,4.5S7.576,4.553,7.471,4.658s-0.158,0.24-0.158,0.404v7.875c0,0.164,0.053,0.299,0.158,0.404
		S7.711,13.5,7.875,13.5s0.299-0.053,0.404-0.158S8.438,13.102,8.438,12.938z"/>
</g>
</svg>
