<?xml version="1.0" encoding="utf-8"?>
<!-- Generator: Adobe Illustrator 15.0.0, SVG Export Plug-In . SVG Version: 6.00 Build 0)  -->
<!DOCTYPE svg PUBLIC "-//W3C//DTD SVG 1.1//EN" "http://www.w3.org/Graphics/SVG/1.1/DTD/svg11.dtd" [
	<!ENTITY ns_extend "http://ns.adobe.com/Extensibility/1.0/">
	<!ENTITY ns_ai "http://ns.adobe.com/AdobeIllustrator/10.0/">
	<!ENTITY ns_graphs "http://ns.adobe.com/Graphs/1.0/">
	<!ENTITY ns_vars "http://ns.adobe.com/Variables/1.0/">
	<!ENTITY ns_imrep "http://ns.adobe.com/ImageReplacement/1.0/">
	<!ENTITY ns_sfw "http://ns.adobe.com/SaveForWeb/1.0/">
	<!ENTITY ns_custom "http://ns.adobe.com/GenericCustomNamespace/1.0/">
	<!ENTITY ns_adobe_xpath "http://ns.adobe.com/XPath/1.0/">
]>
<svg version="1.1" id="Layer_1" xmlns:x="&ns_extend;" xmlns:i="&ns_ai;" xmlns:graph="&ns_graphs;"
	 xmlns="http://www.w3.org/2000/svg" xmlns:xlink="http://www.w3.org/1999/xlink" x="0px" y="0px" width="17.5px" height="17.5px"
	 viewBox="0 0 17.5 17.5" enable-background="new 0 0 17.5 17.5" xml:space="preserve">
<metadata>
	<sfw  xmlns="&ns_sfw;">
		<slices></slices>
		<sliceSourceBounds  y="-308.314" x="386.584" height="17.5" width="17.5" bottomLeftOrigin="true"></sliceSourceBounds>
	</sfw>
</metadata>
<g>
	<path fill="#FFFFFF" d="M2.559,2.559C4.264,0.853,6.328,0,8.75,0s4.485,0.853,6.191,2.559C16.647,4.265,17.5,6.328,17.5,8.75
		s-0.853,4.486-2.559,6.191C13.235,16.646,11.172,17.5,8.75,17.5c-0.886,0-1.719-0.117-2.5-0.352
		c0.469-0.834,0.768-1.458,0.898-1.875l0.625-2.422c0.391,0.729,1.094,1.094,2.109,1.094c1.406,0,2.545-0.56,3.418-1.68
		c0.872-1.119,1.308-2.552,1.308-4.297c0-1.354-0.521-2.532-1.562-3.535c-1.042-1.002-2.37-1.504-3.984-1.504
		c-1.927,0-3.451,0.566-4.57,1.699c-1.12,1.133-1.68,2.39-1.68,3.77c0,1.745,0.599,2.865,1.797,3.359
		C4.844,11.862,5,11.784,5.078,11.523c0-0.052,0.02-0.169,0.059-0.352c0.039-0.182,0.071-0.299,0.098-0.352
		c0.052-0.156,0.013-0.313-0.117-0.469C4.727,9.883,4.531,9.31,4.531,8.633c0-1.146,0.397-2.129,1.191-2.949
		c0.794-0.82,1.829-1.23,3.105-1.23c1.146,0,2.044,0.306,2.695,0.918C12.174,5.983,12.5,6.784,12.5,7.773
		c0,1.302-0.261,2.402-0.781,3.301c-0.521,0.898-1.185,1.348-1.992,1.348c-0.469,0-0.847-0.162-1.133-0.488
		c-0.287-0.325-0.378-0.723-0.273-1.191c0.052-0.26,0.149-0.612,0.293-1.055c0.143-0.442,0.26-0.833,0.352-1.172
		c0.091-0.338,0.137-0.625,0.137-0.859c0-0.364-0.104-0.677-0.313-0.938C8.581,6.458,8.294,6.328,7.93,6.328
		c-0.469,0-0.866,0.215-1.191,0.645C6.413,7.402,6.25,7.943,6.25,8.594c0,0.234,0.026,0.469,0.078,0.703
		C6.38,9.531,6.432,9.714,6.484,9.844L6.523,10c-0.651,2.709-1.029,4.297-1.133,4.766c-0.156,0.625-0.208,1.289-0.156,1.992
		c-1.563-0.703-2.826-1.771-3.789-3.203C0.481,12.123,0,10.521,0,8.75C0,6.328,0.853,4.265,2.559,2.559z"/>
</g>
</svg>
