<?xml version="1.0" encoding="utf-8"?>
<!-- Generator: Adobe Illustrator 15.0.0, SVG Export Plug-In . SVG Version: 6.00 Build 0)  -->
<!DOCTYPE svg PUBLIC "-//W3C//DTD SVG 1.1//EN" "http://www.w3.org/Graphics/SVG/1.1/DTD/svg11.dtd" [
	<!ENTITY ns_extend "http://ns.adobe.com/Extensibility/1.0/">
	<!ENTITY ns_ai "http://ns.adobe.com/AdobeIllustrator/10.0/">
	<!ENTITY ns_graphs "http://ns.adobe.com/Graphs/1.0/">
	<!ENTITY ns_vars "http://ns.adobe.com/Variables/1.0/">
	<!ENTITY ns_imrep "http://ns.adobe.com/ImageReplacement/1.0/">
	<!ENTITY ns_sfw "http://ns.adobe.com/SaveForWeb/1.0/">
	<!ENTITY ns_custom "http://ns.adobe.com/GenericCustomNamespace/1.0/">
	<!ENTITY ns_adobe_xpath "http://ns.adobe.com/XPath/1.0/">
]>
<svg version="1.1" id="Layer_1" xmlns:x="&ns_extend;" xmlns:i="&ns_ai;" xmlns:graph="&ns_graphs;"
	 xmlns="http://www.w3.org/2000/svg" xmlns:xlink="http://www.w3.org/1999/xlink" x="0px" y="0px" width="17.143px"
	 height="17.145px" viewBox="0 0 17.143 17.145" enable-background="new 0 0 17.143 17.145" xml:space="preserve">
<metadata>
	<sfw  xmlns="&ns_sfw;">
		<slices></slices>
		<sliceSourceBounds  y="291.929" x="390.929" height="17.144" width="17.143" bottomLeftOrigin="true"></sliceSourceBounds>
	</sfw>
</metadata>
<g>
	<path fill="#FFFFFF" d="M13.571,10c0.99,0,1.832,0.35,2.528,1.044c0.696,0.695,1.044,1.538,1.044,2.527
		c0,0.99-0.348,1.832-1.044,2.528c-0.696,0.694-1.538,1.044-2.528,1.044c-0.989,0-1.832-0.35-2.527-1.044
		C10.348,15.403,10,14.562,10,13.571c0-0.089,0.007-0.215,0.021-0.379l-4.018-2.01c-0.686,0.641-1.496,0.961-2.434,0.961
		c-0.989,0-1.832-0.349-2.527-1.044C0.347,10.403,0,9.562,0,8.571c0-0.989,0.348-1.832,1.043-2.528C1.739,5.348,2.582,5,3.571,5
		C4.509,5,5.32,5.32,6.004,5.96l4.018-2.009C10.007,3.788,10,3.661,10,3.571c0-0.989,0.348-1.832,1.043-2.528
		C11.739,0.348,12.582,0,13.571,0c0.989,0,1.832,0.349,2.528,1.043c0.696,0.696,1.044,1.539,1.044,2.528
		c0,0.99-0.348,1.833-1.044,2.528c-0.696,0.694-1.538,1.043-2.528,1.043c-0.938,0-1.749-0.32-2.433-0.96l-4.017,2.01
		c0.015,0.164,0.021,0.291,0.021,0.379c0,0.089-0.008,0.216-0.021,0.38l4.018,2.009C11.823,10.32,12.634,10,13.571,10z"/>
</g>
</svg>
