<?xml version="1.0" encoding="utf-8"?>
<!-- Generator: Adobe Illustrator 15.0.0, SVG Export Plug-In . SVG Version: 6.00 Build 0)  -->
<!DOCTYPE svg PUBLIC "-//W3C//DTD SVG 1.1//EN" "http://www.w3.org/Graphics/SVG/1.1/DTD/svg11.dtd">
<svg version="1.1" id="Layer_1" xmlns="http://www.w3.org/2000/svg" xmlns:xlink="http://www.w3.org/1999/xlink" x="0px" y="0px"
	 width="20.096px" height="20.097px" viewBox="0 0 20.096 20.097" enable-background="new 0 0 20.096 20.097" xml:space="preserve">
<g>
	<path fill="#FFFFFF" d="M20.096,18.551c0,0.418-0.153,0.78-0.459,1.087c-0.306,0.306-0.668,0.459-1.087,0.459
		c-0.435,0-0.797-0.153-1.087-0.459l-4.143-4.131c-1.441,0.999-3.047,1.498-4.819,1.498c-1.151,0-2.252-0.224-3.303-0.671
		c-1.051-0.446-1.957-1.051-2.717-1.812s-1.365-1.666-1.812-2.717S0,9.654,0,8.502S0.224,6.25,0.67,5.199s1.051-1.957,1.812-2.717
		S4.148,1.117,5.199,0.67C6.25,0.224,7.351,0,8.502,0s2.252,0.224,3.303,0.67s1.957,1.051,2.717,1.812s1.365,1.667,1.812,2.717
		c0.446,1.051,0.67,2.152,0.67,3.303c0,1.771-0.499,3.377-1.498,4.819l4.142,4.143C19.947,17.762,20.096,18.124,20.096,18.551z
		 M12.324,12.325c1.059-1.059,1.588-2.333,1.588-3.823c0-1.49-0.53-2.764-1.588-3.822S9.992,3.092,8.502,3.092
		c-1.489,0-2.764,0.53-3.822,1.588S3.092,7.013,3.092,8.502c0,1.489,0.529,2.764,1.588,3.823s2.333,1.588,3.822,1.588
		C9.992,13.913,11.266,13.384,12.324,12.325z"/>
</g>
</svg>
