<?xml version="1.0" encoding="utf-8"?>
<!-- Generator: Adobe Illustrator 15.0.0, SVG Export Plug-In . SVG Version: 6.00 Build 0)  -->
<!DOCTYPE svg PUBLIC "-//W3C//DTD SVG 1.1//EN" "http://www.w3.org/Graphics/SVG/1.1/DTD/svg11.dtd" [
	<!ENTITY ns_extend "http://ns.adobe.com/Extensibility/1.0/">
	<!ENTITY ns_ai "http://ns.adobe.com/AdobeIllustrator/10.0/">
	<!ENTITY ns_graphs "http://ns.adobe.com/Graphs/1.0/">
	<!ENTITY ns_vars "http://ns.adobe.com/Variables/1.0/">
	<!ENTITY ns_imrep "http://ns.adobe.com/ImageReplacement/1.0/">
	<!ENTITY ns_sfw "http://ns.adobe.com/SaveForWeb/1.0/">
	<!ENTITY ns_custom "http://ns.adobe.com/GenericCustomNamespace/1.0/">
	<!ENTITY ns_adobe_xpath "http://ns.adobe.com/XPath/1.0/">
]>
<svg version="1.1" id="Layer_1" xmlns:x="&ns_extend;" xmlns:i="&ns_ai;" xmlns:graph="&ns_graphs;"
	 xmlns="http://www.w3.org/2000/svg" xmlns:xlink="http://www.w3.org/1999/xlink" x="0px" y="0px" width="17.589px"
	 height="14.285px" viewBox="0 0 17.589 14.285" enable-background="new 0 0 17.589 14.285" xml:space="preserve">
<metadata>
	<sfw  xmlns="&ns_sfw;">
		<slices></slices>
		<sliceSourceBounds  y="293.357" x="390.706" height="14.285" width="17.589" bottomLeftOrigin="true"></sliceSourceBounds>
	</sfw>
</metadata>
<g>
	<path fill="#737373" d="M17.589,1.696c-0.5,0.729-1.103,1.351-1.809,1.864c0.008,0.104,0.012,0.261,0.012,0.469
		c0,0.967-0.143,1.933-0.424,2.896c-0.283,0.964-0.714,1.888-1.289,2.774c-0.578,0.885-1.265,1.668-2.061,2.349
		s-1.756,1.224-2.879,1.63c-1.124,0.405-2.325,0.607-3.605,0.607c-2.017,0-3.861-0.539-5.535-1.617
		c0.26,0.029,0.55,0.044,0.87,0.044c1.674,0,3.166-0.513,4.476-1.54c-0.781-0.015-1.48-0.255-2.099-0.72
		C2.63,9.986,2.206,9.395,1.975,8.672c0.246,0.037,0.473,0.057,0.682,0.057c0.319,0,0.636-0.041,0.948-0.123
		C2.771,8.434,2.081,8.02,1.534,7.36c-0.547-0.658-0.82-1.423-0.82-2.293V5.022C1.22,5.305,1.763,5.458,2.344,5.48
		C1.853,5.152,1.462,4.725,1.172,4.196C0.881,3.668,0.736,3.095,0.736,2.478c0-0.655,0.163-1.261,0.491-1.819
		c0.9,1.109,1.995,1.996,3.286,2.662c1.291,0.666,2.674,1.036,4.146,1.11C8.599,4.148,8.57,3.873,8.57,3.605
		c0-0.997,0.352-1.847,1.055-2.55C10.328,0.352,11.179,0,12.175,0c1.043,0,1.921,0.379,2.635,1.138
		c0.813-0.156,1.574-0.446,2.288-0.871c-0.274,0.856-0.804,1.518-1.585,1.987C16.205,2.18,16.896,1.994,17.589,1.696z"/>
</g>
</svg>
