<?xml version="1.0" encoding="utf-8"?>
<!-- Generator: Adobe Illustrator 15.0.0, SVG Export Plug-In . SVG Version: 6.00 Build 0)  -->
<!DOCTYPE svg PUBLIC "-//W3C//DTD SVG 1.1//EN" "http://www.w3.org/Graphics/SVG/1.1/DTD/svg11.dtd">
<svg version="1.1" id="Layer_1" xmlns="http://www.w3.org/2000/svg" xmlns:xlink="http://www.w3.org/1999/xlink" x="0px" y="0px"
	 width="17.589px" height="14.285px" viewBox="0 0 17.589 14.285" enable-background="new 0 0 17.589 14.285" xml:space="preserve">
<g>
	<path fill="#FFFFFF" d="M17.589,1.696c-0.499,0.729-1.102,1.351-1.808,1.864c0.007,0.104,0.011,0.261,0.011,0.469
		c0,0.967-0.142,1.933-0.424,2.896c-0.283,0.963-0.713,1.888-1.289,2.774c-0.577,0.885-1.264,1.668-2.06,2.349
		s-1.756,1.224-2.879,1.63c-1.124,0.405-2.325,0.607-3.605,0.607c-2.017,0-3.861-0.539-5.535-1.617
		c0.26,0.029,0.55,0.044,0.87,0.044c1.674,0,3.166-0.513,4.476-1.54c-0.781-0.015-1.48-0.255-2.099-0.72
		C2.63,9.986,2.206,9.394,1.975,8.672c0.246,0.037,0.473,0.056,0.682,0.056c0.319,0,0.636-0.04,0.948-0.122
		C2.771,8.434,2.081,8.019,1.534,7.36c-0.547-0.658-0.82-1.423-0.82-2.293V5.022C1.22,5.305,1.763,5.458,2.344,5.48
		C1.853,5.152,1.462,4.725,1.172,4.196C0.881,3.668,0.736,3.095,0.736,2.478c0-0.655,0.163-1.261,0.491-1.819
		c0.9,1.109,1.995,1.996,3.286,2.662s2.674,1.036,4.146,1.11c-0.06-0.283-0.089-0.558-0.089-0.826c0-0.997,0.352-1.847,1.055-2.55
		S11.179,0,12.176,0c1.042,0,1.92,0.379,2.634,1.138c0.812-0.156,1.574-0.446,2.288-0.871c-0.275,0.856-0.804,1.518-1.585,1.987
		C16.205,2.18,16.896,1.994,17.589,1.696z"/>
</g>
</svg>
