<?xml version="1.0" encoding="utf-8"?>
<!-- Generator: Adobe Illustrator 15.0.0, SVG Export Plug-In . SVG Version: 6.00 Build 0)  -->
<!DOCTYPE svg PUBLIC "-//W3C//DTD SVG 1.1//EN" "http://www.w3.org/Graphics/SVG/1.1/DTD/svg11.dtd">
<svg version="1.1" id="Layer_1" xmlns="http://www.w3.org/2000/svg" xmlns:xlink="http://www.w3.org/1999/xlink" x="0px" y="0px"
	 width="22.857px" height="17.144px" viewBox="0 0 22.857 17.144" enable-background="new 0 0 22.857 17.144" xml:space="preserve">
<g>
	<path fill="#FFFFFF" d="M10.357,12.5c0,0.388,0.142,0.722,0.424,1.005s0.618,0.424,1.004,0.424h2.857v2.656
		c-0.506,0.372-1.143,0.559-1.909,0.559H2.98c-0.9,0-1.622-0.258-2.165-0.771C0.271,15.859,0,15.153,0,14.253
		c0-0.395,0.013-0.779,0.039-1.156c0.026-0.375,0.078-0.781,0.156-1.216c0.078-0.436,0.177-0.839,0.296-1.211
		c0.119-0.372,0.279-0.735,0.48-1.089c0.201-0.354,0.431-0.654,0.692-0.903c0.26-0.25,0.578-0.448,0.954-0.597
		c0.375-0.149,0.791-0.223,1.245-0.223c0.141,0,0.286,0.063,0.435,0.189c0.588,0.454,1.163,0.794,1.724,1.021
		c0.562,0.228,1.174,0.341,1.836,0.341s1.274-0.113,1.836-0.341c0.562-0.227,1.137-0.567,1.725-1.021
		c0.148-0.126,0.294-0.189,0.435-0.189c0.982,0,1.79,0.357,2.422,1.071h-2.489c-0.387,0-0.722,0.142-1.004,0.424
		c-0.283,0.283-0.424,0.617-0.424,1.005V12.5z M10.887,7.316C10.05,8.153,9.04,8.571,7.857,8.571c-1.183,0-2.193-0.418-3.03-1.255
		C3.99,6.479,3.571,5.469,3.571,4.286s0.418-2.193,1.256-3.03C5.664,0.418,6.674,0,7.857,0c1.183,0,2.193,0.418,3.03,1.256
		c0.837,0.837,1.256,1.847,1.256,3.03S11.724,6.479,10.887,7.316z M18.571,10H22.5c0.097,0,0.18,0.036,0.251,0.106
		s0.106,0.154,0.106,0.251V12.5c0,0.097-0.035,0.181-0.106,0.251s-0.154,0.106-0.251,0.106h-3.929v3.929
		c0,0.096-0.035,0.18-0.106,0.251c-0.07,0.07-0.154,0.106-0.25,0.106h-2.144c-0.097,0-0.18-0.036-0.251-0.106
		c-0.071-0.071-0.106-0.155-0.106-0.251v-3.929h-3.929c-0.097,0-0.181-0.036-0.251-0.106c-0.071-0.07-0.106-0.154-0.106-0.251
		v-2.143c0-0.097,0.035-0.181,0.106-0.251c0.07-0.07,0.154-0.106,0.251-0.106h3.929V6.071c0-0.096,0.035-0.18,0.106-0.251
		c0.071-0.07,0.154-0.106,0.251-0.106h2.144c0.096,0,0.18,0.036,0.25,0.106c0.071,0.071,0.106,0.155,0.106,0.251V10z"/>
</g>
</svg>
