<?xml version="1.0" encoding="utf-8"?>
<!-- Generator: Adobe Illustrator 15.0.0, SVG Export Plug-In . SVG Version: 6.00 Build 0)  -->
<!DOCTYPE svg PUBLIC "-//W3C//DTD SVG 1.1//EN" "http://www.w3.org/Graphics/SVG/1.1/DTD/svg11.dtd">
<svg version="1.1" id="Layer_1" xmlns="http://www.w3.org/2000/svg" xmlns:xlink="http://www.w3.org/1999/xlink" x="0px" y="0px"
	 width="16.54px" height="20px" viewBox="0 0 16.54 20" enable-background="new 0 0 16.54 20" xml:space="preserve">
<g>
	<path fill="#FFFFFF" d="M16.54,14.241c0,1.741-0.097,3.043-0.29,3.906c-0.104,0.438-0.319,0.808-0.647,1.104
		c-0.327,0.298-0.706,0.469-1.138,0.514C13.096,19.922,11.03,20,8.271,20c-2.761,0-4.825-0.078-6.194-0.234
		c-0.432-0.045-0.813-0.216-1.144-0.514c-0.332-0.297-0.546-0.666-0.643-1.104C0.097,17.314,0,16.012,0,14.241
		c0-1.741,0.097-3.043,0.29-3.906C0.395,9.896,0.61,9.528,0.938,9.23c0.327-0.297,0.711-0.472,1.149-0.524
		C3.449,8.557,5.51,8.482,8.271,8.482c2.76,0,4.825,0.074,6.194,0.223c0.432,0.052,0.813,0.227,1.144,0.524
		c0.331,0.298,0.545,0.666,0.642,1.105C16.443,11.168,16.54,12.471,16.54,14.241z M3.527,11.463h1.194v-1.05H1.239v1.05h1.172v6.35
		h1.116V11.463z M5.402,0H6.54L5.19,4.453v3.025H4.074V4.453C3.97,3.903,3.743,3.114,3.394,2.087C3.118,1.321,2.876,0.625,2.668,0
		h1.183l0.793,2.936L5.402,0z M6.741,17.813h0.993v-5.514H6.741v4.219c-0.223,0.313-0.436,0.469-0.636,0.469
		c-0.134,0-0.212-0.078-0.234-0.234C5.863,16.73,5.859,16.6,5.859,16.361v-4.063H4.866v4.364c0,0.364,0.03,0.636,0.09,0.815
		c0.089,0.274,0.305,0.412,0.646,0.412c0.357,0,0.737-0.227,1.139-0.681V17.813z M9.531,3.717V5.67c0,0.603-0.104,1.042-0.313,1.317
		C8.943,7.366,8.55,7.556,8.036,7.556c-0.499,0-0.89-0.19-1.172-0.569C6.655,6.704,6.552,6.265,6.552,5.67V3.717
		c0-0.595,0.104-1.03,0.313-1.306c0.282-0.38,0.673-0.569,1.172-0.569c0.514,0,0.907,0.189,1.183,0.569
		C9.428,2.687,9.531,3.122,9.531,3.717z M8.516,5.859V3.516c0-0.513-0.16-0.77-0.479-0.77c-0.32,0-0.48,0.257-0.48,0.77v2.344
		c0,0.521,0.16,0.781,0.48,0.781C8.355,6.641,8.516,6.38,8.516,5.859z M11.529,16.161v-2.198c0-0.543-0.033-0.912-0.101-1.105
		c-0.126-0.416-0.391-0.625-0.792-0.625c-0.372,0-0.719,0.201-1.038,0.603v-2.422H8.605v7.399h0.993v-0.535
		c0.335,0.408,0.681,0.613,1.038,0.613c0.401,0,0.666-0.205,0.792-0.613C11.496,17.076,11.529,16.704,11.529,16.161z M10.536,13.885
		v2.354c0,0.499-0.146,0.747-0.436,0.747c-0.171,0-0.339-0.081-0.502-0.245v-3.359c0.163-0.163,0.331-0.245,0.502-0.245
		C10.391,13.137,10.536,13.386,10.536,13.885z M13.271,1.909v5.569h-1.016V6.864c-0.395,0.461-0.777,0.692-1.149,0.692
		c-0.343,0-0.563-0.138-0.659-0.413c-0.06-0.179-0.089-0.458-0.089-0.837V1.909h1.016v4.096c0,0.245,0.004,0.375,0.011,0.391
		c0.022,0.164,0.101,0.245,0.234,0.245c0.201,0,0.413-0.16,0.637-0.479V1.909H13.271z M15.302,16.049v-0.145h-1.016
		c0,0.379-0.008,0.606-0.022,0.681c-0.052,0.269-0.201,0.401-0.446,0.401c-0.343,0-0.514-0.256-0.514-0.77v-0.971h1.998v-1.15
		c0-0.588-0.101-1.019-0.302-1.294c-0.29-0.38-0.685-0.569-1.183-0.569c-0.506,0-0.904,0.189-1.194,0.569
		c-0.208,0.275-0.313,0.706-0.313,1.294v1.932c0,0.588,0.107,1.02,0.323,1.295c0.291,0.379,0.692,0.568,1.206,0.568
		c0.535,0,0.938-0.197,1.205-0.592c0.134-0.2,0.212-0.401,0.234-0.602C15.294,16.63,15.302,16.414,15.302,16.049z M14.309,13.896
		v0.513h-1.005v-0.513c0-0.506,0.168-0.759,0.502-0.759C14.141,13.137,14.309,13.39,14.309,13.896z"/>
</g>
</svg>
